Coordinates
version=1
nRows=10
nColumns=46
inDegrees=yes

Units are S.I. units (second, meters, Newtons, ...)
Angles are in degrees.

endheader
time	pelvis_tilt	pelvis_list	pelvis_rotation	pelvis_tx	pelvis_ty	pelvis_tz	bb_angle	bb_tx	bb_ty	bb_tz	hip_flexion_r	hip_adduction_r	hip_rotation_r	knee_angle_r	knee_angle_r_beta	ankle_angle_r	subtalar_angle_r	mtp_angle_r	crank_angle_r	hip_flexion_l	hip_adduction_l	hip_rotation_l	knee_angle_l	knee_angle_l_beta	ankle_angle_l	subtalar_angle_l	mtp_angle_l	crank_angle_l	lumbar_extension	lumbar_bending	lumbar_rotation	arm_flex_r	arm_add_r	arm_rot_r	elbow_flex_r	pro_sup_r	wrist_flex_r	wrist_dev_r	arm_flex_l	arm_add_l	arm_rot_l	elbow_flex_l	pro_sup_l	wrist_flex_l	wrist_dev_l
      5.00000000	    -24.40343304	     11.37902651	     10.44881548	      0.42290726	      1.21030596	     -0.22672930	      0.00000000	      0.50000000	      0.00000000	      0.25000000	     28.18092055	    -15.83454113	     -9.80388759	     22.54295734	      0.39344883	     -8.24081931	     -2.04202696	      0.00000000	      0.00000000	     67.28824050	      3.05685094	     -2.53651173	    101.94125515	      1.77921055	     -6.24671456	      2.79478856	      0.00000000	      0.00000000	    -58.44497389	     -2.82288529	     -5.53488036	     55.31797722	    -16.11094580	     20.43840936	     64.73707433	     55.09666452	      0.00000000	      0.00000000	     76.76726173	    -18.40653492	     56.17411551	     51.51233403	     52.47715690	      0.00000000	      0.00000000
      5.00500000	    -24.12720073	     11.33233524	     11.26337040	      0.42364869	      1.21156617	     -0.22734811	      0.00000000	      0.50000000	      0.00000000	      0.25000000	     26.31715066	    -16.00777634	    -11.31015774	     21.23368430	      0.37059770	     -9.21609720	     -1.54104732	      0.00000000	      0.00000000	     68.17168018	      3.39109371	     -2.42839167	    102.35089265	      1.78636007	     -6.67214193	      3.00193429	      0.00000000	      0.00000000	    -58.66052596	     -2.64060115	     -6.15774908	     55.29059154	    -15.96339855	     20.39855597	     64.02359016	     55.00711124	      0.00000000	      0.00000000	     76.42539154	    -18.08393313	     56.00895396	     51.63900997	     52.43868608	      0.00000000	      0.00000000
      5.01000000	    -24.20047058	     11.37071393	     11.98848317	      0.42391300	      1.21242684	     -0.22778597	      0.00000000	      0.50000000	      0.00000000	      0.25000000	     25.09378158	    -16.24900499	    -12.40104145	     20.28111266	      0.35397219	    -10.14395703	     -1.19066631	      0.00000000	      0.00000000	     69.35354624	      3.75598197	     -2.48657167	    102.52982861	      1.78948309	     -7.26205426	      3.23895192	      0.00000000	      0.00000000	    -58.62446502	     -2.74087108	     -6.68184826	     55.02843320	    -16.08697501	     20.34488462	     63.60516949	     54.94882932	      0.00000000	      0.00000000	     76.46114194	    -17.99236100	     55.68337310	     51.71107380	     52.39753721	      0.00000000	      0.00000000
      5.01500000	    -23.69665752	     11.13546774	     12.91282221	      0.42455556	      1.21439603	     -0.22891636	      0.00000000	      0.50000000	      0.00000000	      0.25000000	     23.15916169	    -16.28196728	    -14.41370890	     19.35920708	      0.33788190	    -10.95825111	     -0.42635065	      0.00000000	      0.00000000	     69.94429954	      4.26458313	     -2.12028741	    102.67417238	      1.79200236	     -7.74613403	      3.31971259	      0.00000000	      0.00000000	    -58.98857472	     -1.96650031	     -7.75409142	     56.32768039	    -14.63780987	     20.82247240	     60.79806813	     54.70893639	      0.00000000	      0.00000000	     74.74664695	    -18.12652615	     52.18730618	     52.74743744	     51.98814985	      0.00000000	      0.00000000
      5.02000000	    -23.48484384	     10.95239266	     13.77211214	      0.42463490	      1.21600908	     -0.23001009	      0.00000000	      0.50000000	      0.00000000	      0.25000000	     21.83297555	    -16.36215989	    -16.07012008	     18.83524648	      0.32873707	    -12.00341606	      0.11605011	      0.00000000	      0.00000000	     70.77456402	      4.81046839	     -1.87443668	    102.63155161	      1.79125849	     -8.25334403	      3.39803714	      0.00000000	      0.00000000	    -59.21864924	     -1.46856849	     -8.60125129	     57.04893596	    -14.02089536	     21.35892128	     59.21404100	     54.71069582	      0.00000000	      0.00000000	     73.90073916	    -18.43969448	     50.52983028	     53.85860690	     51.81508596	      0.00000000	      0.00000000
      5.02500000	    -23.27695715	     10.72546039	     14.53166219	      0.42469272	      1.21778958	     -0.23064325	      0.00000000	      0.50000000	      0.00000000	      0.25000000	     20.67280777	    -16.27284609	    -17.39900197	     18.47472201	      0.32244473	    -13.10628883	      0.13396434	      0.00000000	      0.00000000	     71.51056746	      5.23109789	     -1.64885977	    102.42265455	      1.78761255	     -8.78271334	      3.48319472	      0.00000000	      0.00000000	    -59.52952273	     -1.14284339	     -8.94706061	     57.09011265	    -14.06315670	     21.28150556	     58.87419261	     54.67117519	      0.00000000	      0.00000000	     73.78812392	    -18.24753996	     50.16611368	     54.11096091	     51.78801052	      0.00000000	      0.00000000
      5.03000000	    -23.11077964	     10.55390713	     15.23940520	      0.42458091	      1.21967661	     -0.23126567	      0.00000000	      0.50000000	      0.00000000	      0.25000000	     19.81979172	    -16.33869121	    -18.66371400	     18.57598181	      0.32421204	    -14.05412730	      0.46099292	      0.00000000	      0.00000000	     72.17536528	      5.63643957	     -1.54080425	    102.05574443	      1.78120876	     -9.29536464	      3.50361157	      0.00000000	      0.00000000	    -59.82538942	     -0.74420771	     -9.78658748	     57.93773260	    -13.25412381	     21.70289258	     57.25417288	     54.60212842	      0.00000000	      0.00000000	     72.74526122	    -18.42494648	     47.64683983	     55.35158868	     51.55743278	      0.00000000	      0.00000000
      5.03500000	    -23.02678475	     10.37004243	     15.83333572	      0.42446607	      1.22159752	     -0.23146003	      0.00000000	      0.50000000	      0.00000000	      0.25000000	     19.28785513	    -16.34554997	    -19.69334433	     18.97356489	      0.33115118	    -15.05594702	      0.20881890	      0.00000000	      0.00000000	     72.78153485	      5.93153223	     -1.48552204	    101.51530397	      1.77177630	     -9.73877641	      3.75377223	      0.00000000	      0.00000000	    -60.18095530	     -0.65235875	    -10.08828395	     57.96198949	    -13.35424727	     21.70375363	     57.05056144	     54.57874726	      0.00000000	      0.00000000	     72.91612436	    -18.20855631	     47.43659917	     55.62243707	     51.56247561	      0.00000000	      0.00000000
      5.04000000	    -22.81140417	     10.17535709	     16.63139293	      0.42434219	      1.22418359	     -0.23231983	      0.00000000	      0.50000000	      0.00000000	      0.25000000	     18.55563519	    -16.43237683	    -21.07539052	     19.37439912	      0.33814706	    -16.01555988	      0.14868963	      0.00000000	      0.00000000	     73.10183869	      6.51749695	     -1.34563930	    100.79074612	      1.75913038	    -10.03684709	      3.59821233	      0.00000000	      0.00000000	    -60.68828826	     -0.01869154	    -10.99917205	     58.85484254	    -12.60762072	     22.28785864	     55.81408920	     54.55655896	      0.00000000	      0.00000000	     71.69029462	    -18.66368376	     44.57469314	     57.57637135	     51.43473666	      0.00000000	      0.00000000
      5.04500000	    -22.80506294	     10.05904435	     17.24331354	      0.42403556	      1.22645390	     -0.23289281	      0.00000000	      0.50000000	      0.00000000	      0.25000000	     18.40478926	    -16.66856598	    -21.89943335	     20.35341803	      0.35523416	    -16.84908961	     -0.10787992	      0.00000000	      0.00000000	     73.50379011	      7.01375845	     -1.34044451	     99.93048077	      1.74411591	    -10.36702508	      3.41831100	      0.00000000	      0.00000000	    -61.11512959	      0.30005564	    -11.81063275	     59.71875617	    -12.38204002	     23.24978818	     54.91084686	     54.63852821	      0.00000000	      0.00000000	     70.97752064	    -19.21525171	     42.90211835	     59.24914318	     51.41664045	      0.00000000	      0.00000000
